<?xml version="1.0"?>
<mxfile host="Electron" modified="2022-06-26T13:50:06.139Z" agent="5.0 (X11; Linux x86_64) AppleWebKit/537.36 (KHTML, like Gecko) draw.io/18.1.3 Chrome/100.0.4896.143 Electron/18.2.3 Safari/537.36" etag="94NtySztDvmBoPNlME25" compressed="false" version="18.1.3">
  <diagram id="SuTt-NehiLuuTij5P4sI" name="Page-1">
    <mxGraphModel dx="2" dy="1" grid="1" gridSize="10" guides="0" tooltips="1" connect="0" arrows="0" fold="1" page="1" pageScale="1" pageWidth="850" pageHeight="1100" math="0" shadow="0">
      <root>
        <mxCell id="0"/>
        <mxCell id="1" parent="0"/>
        <mxCell id="H8k91Xr5LqOuxx0Z85sr-53" value="" style="rounded=0;whiteSpace=wrap;html=1;align=left;gradientDirection=east;strokeColor=none;fillColor=#f8cecc;gradientColor=#ffffff;" parent="1" vertex="1">
          <mxGeometry x="20" y="310" width="40" height="4" as="geometry"/>
        </mxCell>
        <mxCell id="H8k91Xr5LqOuxx0Z85sr-29" value="" style="endArrow=none;dashed=1;html=1;strokeWidth=6;dashPattern=1 4;fillColor=#bac8d3;strokeColor=#23445d;sketch=1;" parent="1" edge="1">
          <mxGeometry width="50" height="50" relative="1" as="geometry">
            <mxPoint x="440" y="310" as="sourcePoint"/>
            <mxPoint x="500" y="310" as="targetPoint"/>
          </mxGeometry>
        </mxCell>
        <mxCell id="PAhmVjMoxAMaqZg4B_g7-12" value="uArch" style="rounded=0;whiteSpace=wrap;html=1;align=left;fontColor=#333333;gradientColor=#ffffff;gradientDirection=east;strokeColor=none;fillColor=#CCCCCC;" parent="1" vertex="1">
          <mxGeometry x="20" y="338" width="40" height="4" as="geometry"/>
        </mxCell>
        <mxCell id="PAhmVjMoxAMaqZg4B_g7-11" value="&lt;span style=&quot;color: rgb(0, 0, 0);&quot;&gt;ISA&lt;/span&gt;" style="rounded=0;whiteSpace=wrap;html=1;align=left;gradientDirection=east;strokeColor=none;fillColor=#dae8fc;gradientColor=#ffffff;" parent="1" vertex="1">
          <mxGeometry x="20" y="306" width="40" height="4" as="geometry"/>
        </mxCell>
        <mxCell id="PAhmVjMoxAMaqZg4B_g7-6" value="&lt;span style=&quot;color: rgb(0, 0, 0);&quot;&gt;SysEnv&lt;/span&gt;" style="rounded=0;whiteSpace=wrap;html=1;align=left;fontColor=#333333;gradientColor=#ffffff;gradientDirection=east;strokeColor=none;fillColor=#CCCCCC;" parent="1" vertex="1">
          <mxGeometry x="20" y="130" width="40" height="30" as="geometry"/>
        </mxCell>
        <mxCell id="rswDAVN-zbumqpKh8glA-31" value="" style="endArrow=none;dashed=1;html=1;strokeWidth=6;dashPattern=1 4;fillColor=#d5e8d4;strokeColor=#82b366;sketch=1;" parent="1" edge="1">
          <mxGeometry width="50" height="50" relative="1" as="geometry">
            <mxPoint x="140" y="130" as="sourcePoint"/>
            <mxPoint x="500" y="130" as="targetPoint"/>
          </mxGeometry>
        </mxCell>
        <mxCell id="rswDAVN-zbumqpKh8glA-33" value="" style="endArrow=none;dashed=1;html=1;strokeWidth=6;dashPattern=1 4;fillColor=#ffe6cc;strokeColor=#d79b00;sketch=1;" parent="1" edge="1">
          <mxGeometry width="50" height="50" relative="1" as="geometry">
            <mxPoint x="80" y="150" as="sourcePoint"/>
            <mxPoint x="500" y="150" as="targetPoint"/>
          </mxGeometry>
        </mxCell>
        <mxCell id="rswDAVN-zbumqpKh8glA-25" value="" style="endArrow=none;dashed=1;html=1;strokeWidth=6;dashPattern=1 4;fillColor=#d5e8d4;strokeColor=#82b366;sketch=1;" parent="1" edge="1">
          <mxGeometry width="50" height="50" relative="1" as="geometry">
            <mxPoint x="140" y="190" as="sourcePoint"/>
            <mxPoint x="500" y="190" as="targetPoint"/>
          </mxGeometry>
        </mxCell>
        <mxCell id="rswDAVN-zbumqpKh8glA-1" value="Hardware Resouces" style="rounded=0;whiteSpace=wrap;html=1;fillColor=#f5f5f5;strokeColor=#666666;fontColor=#333333;shadow=0;sketch=1;" parent="1" vertex="1">
          <mxGeometry x="80" y="340" width="120" height="20" as="geometry"/>
        </mxCell>
        <mxCell id="rswDAVN-zbumqpKh8glA-2" value="Pvl Inst" style="rounded=0;whiteSpace=wrap;html=1;fillColor=#f8cecc;strokeColor=#b85450;sketch=1;" parent="1" vertex="1">
          <mxGeometry x="140" y="310" width="60" height="20" as="geometry"/>
        </mxCell>
        <mxCell id="rswDAVN-zbumqpKh8glA-4" value="" style="endArrow=none;dashed=1;html=1;strokeWidth=6;dashPattern=1 4;fillColor=#f5f5f5;strokeColor=#666666;sketch=1;" parent="1" edge="1">
          <mxGeometry width="50" height="50" relative="1" as="geometry">
            <mxPoint x="80" y="340" as="sourcePoint"/>
            <mxPoint x="200" y="340" as="targetPoint"/>
          </mxGeometry>
        </mxCell>
        <mxCell id="rswDAVN-zbumqpKh8glA-7" value="OS Kernel:" style="rounded=0;whiteSpace=wrap;html=1;fillColor=#d5e8d4;strokeColor=#82b366;align=left;sketch=1;" parent="1" vertex="1">
          <mxGeometry x="80" y="280" width="420" height="20" as="geometry"/>
        </mxCell>
        <mxCell id="rswDAVN-zbumqpKh8glA-20" value="User/3rd-part Libraries" style="rounded=0;whiteSpace=wrap;html=1;fillColor=#ffe6cc;strokeColor=#d79b00;sketch=1;" parent="1" vertex="1">
          <mxGeometry x="80" y="210" width="420" height="20" as="geometry"/>
        </mxCell>
        <mxCell id="rswDAVN-zbumqpKh8glA-21" value="" style="endArrow=none;dashed=1;html=1;strokeWidth=6;dashPattern=1 4;fillColor=#ffe6cc;strokeColor=#d79b00;sketch=1;" parent="1" edge="1">
          <mxGeometry width="50" height="50" relative="1" as="geometry">
            <mxPoint x="80" y="210" as="sourcePoint"/>
            <mxPoint x="240" y="210" as="targetPoint"/>
          </mxGeometry>
        </mxCell>
        <mxCell id="rswDAVN-zbumqpKh8glA-26" value="System Applications" style="rounded=0;whiteSpace=wrap;html=1;fillColor=#fff2cc;strokeColor=#d6b656;sketch=1;" parent="1" vertex="1">
          <mxGeometry x="80" y="160" width="420" height="20" as="geometry"/>
        </mxCell>
        <mxCell id="rswDAVN-zbumqpKh8glA-27" value="" style="endArrow=none;dashed=1;html=1;strokeWidth=6;dashPattern=1 4;fillColor=#fff2cc;strokeColor=#d6b656;sketch=1;" parent="1" edge="1">
          <mxGeometry width="50" height="50" relative="1" as="geometry">
            <mxPoint x="80" y="160" as="sourcePoint"/>
            <mxPoint x="500" y="160" as="targetPoint"/>
          </mxGeometry>
        </mxCell>
        <mxCell id="rswDAVN-zbumqpKh8glA-34" value="User Application" style="rounded=0;whiteSpace=wrap;html=1;fillColor=#e1d5e7;strokeColor=#9673a6;sketch=1;" parent="1" vertex="1">
          <mxGeometry x="80" y="30" width="420" height="20" as="geometry"/>
        </mxCell>
        <mxCell id="CEWVe7HLlZmaSNWJAqid-1" value="Other User Applications" style="rounded=0;whiteSpace=wrap;html=1;fillColor=#fad7ac;strokeColor=#b46504;sketch=1;" parent="1" vertex="1">
          <mxGeometry x="80" y="100" width="420" height="20" as="geometry"/>
        </mxCell>
        <mxCell id="CEWVe7HLlZmaSNWJAqid-3" value="" style="endArrow=none;dashed=1;html=1;strokeWidth=6;dashPattern=1 4;fillColor=#d5e8d4;strokeColor=#82b366;sketch=1;" parent="1" edge="1">
          <mxGeometry width="50" height="50" relative="1" as="geometry">
            <mxPoint x="140" y="60" as="sourcePoint"/>
            <mxPoint x="500" y="60" as="targetPoint"/>
          </mxGeometry>
        </mxCell>
        <mxCell id="CEWVe7HLlZmaSNWJAqid-4" value="" style="endArrow=none;dashed=1;html=1;strokeWidth=6;dashPattern=1 4;fillColor=#ffe6cc;strokeColor=#d79b00;sketch=1;" parent="1" edge="1">
          <mxGeometry width="50" height="50" relative="1" as="geometry">
            <mxPoint x="80" y="80" as="sourcePoint"/>
            <mxPoint x="500" y="80" as="targetPoint"/>
          </mxGeometry>
        </mxCell>
        <mxCell id="CEWVe7HLlZmaSNWJAqid-5" value="" style="endArrow=none;dashed=1;html=1;strokeWidth=6;dashPattern=1 4;fillColor=#fff2cc;strokeColor=#d6b656;sketch=1;" parent="1" edge="1">
          <mxGeometry width="50" height="50" relative="1" as="geometry">
            <mxPoint x="80" y="90" as="sourcePoint"/>
            <mxPoint x="500" y="90" as="targetPoint"/>
          </mxGeometry>
        </mxCell>
        <mxCell id="CEWVe7HLlZmaSNWJAqid-6" value="" style="endArrow=none;dashed=1;html=1;strokeWidth=6;dashPattern=1 4;fillColor=#fad7ac;strokeColor=#b46504;sketch=1;" parent="1" edge="1">
          <mxGeometry width="50" height="50" relative="1" as="geometry">
            <mxPoint x="80" y="100" as="sourcePoint"/>
            <mxPoint x="500" y="100" as="targetPoint"/>
          </mxGeometry>
        </mxCell>
        <mxCell id="ncCrzAQUgGD48uemNUsK-8" value="&lt;span style=&quot;font-size: 12px; text-align: left; background-color: rgb(248, 249, 250);&quot;&gt;Sys&lt;/span&gt;" style="endArrow=classic;html=1;rounded=1;sketch=1;fillColor=#f5f5f5;strokeColor=#666666;endFill=1;" parent="1" edge="1">
          <mxGeometry width="50" height="50" relative="1" as="geometry">
            <mxPoint x="510" y="300" as="sourcePoint"/>
            <mxPoint x="520" y="270" as="targetPoint"/>
            <Array as="points">
              <mxPoint x="520" y="300"/>
            </Array>
          </mxGeometry>
        </mxCell>
        <mxCell id="EPc09F-uwxIYR0prN0li-1" value="System Libraries" style="rounded=0;whiteSpace=wrap;html=1;fillColor=#fad9d5;strokeColor=#ae4132;sketch=1;" parent="1" vertex="1">
          <mxGeometry x="80" y="250" width="420" height="20" as="geometry"/>
        </mxCell>
        <mxCell id="EPc09F-uwxIYR0prN0li-3" value="" style="endArrow=none;dashed=1;html=1;strokeWidth=6;dashPattern=1 4;fillColor=#fad9d5;strokeColor=#ae4132;sketch=1;" parent="1" edge="1">
          <mxGeometry width="50" height="50" relative="1" as="geometry">
            <mxPoint x="80" y="250" as="sourcePoint"/>
            <mxPoint x="500" y="250" as="targetPoint"/>
          </mxGeometry>
        </mxCell>
        <mxCell id="EPc09F-uwxIYR0prN0li-4" value="" style="endArrow=none;dashed=1;html=1;strokeWidth=6;dashPattern=1 4;fillColor=#d5e8d4;strokeColor=#82b366;sketch=1;" parent="1" edge="1">
          <mxGeometry width="50" height="50" relative="1" as="geometry">
            <mxPoint x="140" y="239.99999999999977" as="sourcePoint"/>
            <mxPoint x="500" y="240" as="targetPoint"/>
          </mxGeometry>
        </mxCell>
        <mxCell id="EPc09F-uwxIYR0prN0li-9" value="" style="endArrow=none;dashed=1;html=1;strokeWidth=6;dashPattern=1 4;fillColor=#fad9d5;strokeColor=#ae4132;sketch=1;" parent="1" edge="1">
          <mxGeometry width="50" height="50" relative="1" as="geometry">
            <mxPoint x="80" y="199.99999999999977" as="sourcePoint"/>
            <mxPoint x="500" y="200" as="targetPoint"/>
          </mxGeometry>
        </mxCell>
        <mxCell id="EPc09F-uwxIYR0prN0li-10" value="" style="endArrow=none;dashed=1;html=1;strokeWidth=6;dashPattern=1 4;fillColor=#fad9d5;strokeColor=#ae4132;sketch=1;" parent="1" edge="1">
          <mxGeometry width="50" height="50" relative="1" as="geometry">
            <mxPoint x="80" y="139.99999999999977" as="sourcePoint"/>
            <mxPoint x="500" y="140" as="targetPoint"/>
          </mxGeometry>
        </mxCell>
        <mxCell id="EPc09F-uwxIYR0prN0li-11" value="" style="endArrow=none;dashed=1;html=1;strokeWidth=6;dashPattern=1 4;fillColor=#fad9d5;strokeColor=#ae4132;sketch=1;" parent="1" edge="1">
          <mxGeometry width="50" height="50" relative="1" as="geometry">
            <mxPoint x="80" y="69.99999999999977" as="sourcePoint"/>
            <mxPoint x="500" y="70" as="targetPoint"/>
          </mxGeometry>
        </mxCell>
        <mxCell id="H8k91Xr5LqOuxx0Z85sr-1" value="&lt;font color=&quot;#000000&quot;&gt;PhysMem&lt;/font&gt;" style="rounded=0;whiteSpace=wrap;html=1;fillColor=#b0e3e6;strokeColor=#0e8088;sketch=1;" parent="1" vertex="1">
          <mxGeometry x="200" y="310" width="60" height="50" as="geometry"/>
        </mxCell>
        <mxCell id="H8k91Xr5LqOuxx0Z85sr-2" value="&lt;font color=&quot;#000000&quot;&gt;Storage&lt;/font&gt;" style="rounded=0;whiteSpace=wrap;html=1;fillColor=#d0cee2;strokeColor=#56517e;sketch=1;" parent="1" vertex="1">
          <mxGeometry x="260" y="310" width="60" height="50" as="geometry"/>
        </mxCell>
        <mxCell id="H8k91Xr5LqOuxx0Z85sr-3" value="* Well-defined: every layer is well-wrappered&lt;br&gt;* Simple: no any virtualization techs" style="text;html=1;align=left;verticalAlign=middle;resizable=0;points=[];autosize=1;strokeColor=none;fillColor=none;sketch=1;" parent="1" vertex="1">
          <mxGeometry x="290" y="400" width="250" height="30" as="geometry"/>
        </mxCell>
        <mxCell id="H8k91Xr5LqOuxx0Z85sr-7" value="&lt;span style=&quot;color: rgb(0, 0, 0);&quot;&gt;Syscall&lt;/span&gt;" style="rounded=0;whiteSpace=wrap;html=1;align=left;gradientDirection=east;strokeColor=none;fillColor=#d5e8d4;gradientColor=#ffffff;" parent="1" vertex="1">
          <mxGeometry x="20" y="278" width="40" height="4" as="geometry"/>
        </mxCell>
        <mxCell id="H8k91Xr5LqOuxx0Z85sr-8" value="&lt;font color=&quot;#000000&quot;&gt;GPU&lt;/font&gt;" style="rounded=0;whiteSpace=wrap;html=1;fillColor=#fad9d5;strokeColor=#ae4132;sketch=1;" parent="1" vertex="1">
          <mxGeometry x="380" y="310" width="60" height="50" as="geometry"/>
        </mxCell>
        <mxCell id="H8k91Xr5LqOuxx0Z85sr-11" value="" style="endArrow=none;dashed=1;html=1;strokeWidth=6;dashPattern=1 4;fillColor=#fad9d5;strokeColor=#ae4132;sketch=1;" parent="1" edge="1">
          <mxGeometry width="50" height="50" relative="1" as="geometry">
            <mxPoint x="379.9999999999999" y="310" as="sourcePoint"/>
            <mxPoint x="440" y="310" as="targetPoint"/>
          </mxGeometry>
        </mxCell>
        <mxCell id="H8k91Xr5LqOuxx0Z85sr-15" value="&lt;font color=&quot;#000000&quot;&gt;OtherDevs&lt;/font&gt;" style="rounded=0;whiteSpace=wrap;html=1;fillColor=#bac8d3;strokeColor=#23445d;sketch=1;" parent="1" vertex="1">
          <mxGeometry x="440" y="310" width="60" height="50" as="geometry"/>
        </mxCell>
        <mxCell id="H8k91Xr5LqOuxx0Z85sr-17" value="VirtMem" style="rounded=0;whiteSpace=wrap;html=1;fillColor=#d5e8d4;strokeColor=#82b366;sketch=1;" parent="1" vertex="1">
          <mxGeometry x="200" y="280" width="60" height="20" as="geometry"/>
        </mxCell>
        <mxCell id="H8k91Xr5LqOuxx0Z85sr-18" value="File Sys" style="rounded=0;whiteSpace=wrap;html=1;fillColor=#d5e8d4;strokeColor=#82b366;sketch=1;" parent="1" vertex="1">
          <mxGeometry x="260" y="280" width="60" height="20" as="geometry"/>
        </mxCell>
        <mxCell id="H8k91Xr5LqOuxx0Z85sr-19" value="Protocols" style="rounded=0;whiteSpace=wrap;html=1;fillColor=#d5e8d4;strokeColor=#82b366;sketch=1;" parent="1" vertex="1">
          <mxGeometry x="320" y="280" width="60" height="20" as="geometry"/>
        </mxCell>
        <mxCell id="H8k91Xr5LqOuxx0Z85sr-20" value="&lt;font color=&quot;#000000&quot;&gt;Network&lt;/font&gt;" style="rounded=0;whiteSpace=wrap;html=1;fillColor=#fad7ac;strokeColor=#b46504;shadow=0;sketch=1;" parent="1" vertex="1">
          <mxGeometry x="320" y="310" width="60" height="50" as="geometry"/>
        </mxCell>
        <mxCell id="H8k91Xr5LqOuxx0Z85sr-21" value="IO" style="rounded=0;whiteSpace=wrap;html=1;fillColor=#d5e8d4;strokeColor=#82b366;sketch=1;" parent="1" vertex="1">
          <mxGeometry x="380" y="280" width="120" height="20" as="geometry"/>
        </mxCell>
        <mxCell id="rswDAVN-zbumqpKh8glA-17" value="" style="endArrow=none;dashed=1;html=1;strokeWidth=6;dashPattern=1 4;fillColor=#d5e8d4;strokeColor=#82b366;sketch=1;" parent="1" edge="1">
          <mxGeometry width="50" height="50" relative="1" as="geometry">
            <mxPoint x="140" y="280" as="sourcePoint"/>
            <mxPoint x="500" y="280" as="targetPoint"/>
          </mxGeometry>
        </mxCell>
        <mxCell id="H8k91Xr5LqOuxx0Z85sr-26" value="&lt;b style=&quot;font-size: 12px; background-color: rgb(248, 249, 250);&quot;&gt;CPU&lt;/b&gt;" style="endArrow=none;html=1;rounded=1;sketch=1;strokeWidth=1;fillColor=#f5f5f5;strokeColor=#666666;" parent="1" edge="1">
          <mxGeometry width="50" height="50" relative="1" as="geometry">
            <mxPoint x="80" y="370" as="sourcePoint"/>
            <mxPoint x="200" y="370" as="targetPoint"/>
            <Array as="points">
              <mxPoint x="80" y="380"/>
              <mxPoint x="200" y="380"/>
            </Array>
          </mxGeometry>
        </mxCell>
        <mxCell id="H8k91Xr5LqOuxx0Z85sr-28" value="" style="endArrow=none;dashed=1;html=1;strokeWidth=6;dashPattern=1 4;fillColor=#fad7ac;strokeColor=#b46504;sketch=1;" parent="1" edge="1">
          <mxGeometry width="50" height="50" relative="1" as="geometry">
            <mxPoint x="319.9999999999999" y="310" as="sourcePoint"/>
            <mxPoint x="380" y="310" as="targetPoint"/>
          </mxGeometry>
        </mxCell>
        <mxCell id="rswDAVN-zbumqpKh8glA-29" value="" style="endArrow=none;dashed=1;html=1;strokeWidth=6;dashPattern=1 4;fillColor=#dae8fc;strokeColor=#6c8ebf;sketch=1;" parent="1" edge="1">
          <mxGeometry width="50" height="50" relative="1" as="geometry">
            <mxPoint x="80" y="130" as="sourcePoint"/>
            <mxPoint x="140" y="130" as="targetPoint"/>
          </mxGeometry>
        </mxCell>
        <mxCell id="rswDAVN-zbumqpKh8glA-23" value="" style="endArrow=none;dashed=1;html=1;strokeWidth=6;dashPattern=1 4;fillColor=#dae8fc;strokeColor=#6c8ebf;sketch=1;" parent="1" edge="1">
          <mxGeometry width="50" height="50" relative="1" as="geometry">
            <mxPoint x="80" y="190" as="sourcePoint"/>
            <mxPoint x="140" y="190" as="targetPoint"/>
          </mxGeometry>
        </mxCell>
        <mxCell id="rswDAVN-zbumqpKh8glA-3" value="Unpvl Inst" style="rounded=0;whiteSpace=wrap;html=1;fillColor=#dae8fc;strokeColor=#6c8ebf;sketch=1;" parent="1" vertex="1">
          <mxGeometry x="80" y="310" width="60" height="20" as="geometry"/>
        </mxCell>
        <mxCell id="CEWVe7HLlZmaSNWJAqid-2" value="" style="endArrow=none;dashed=1;html=1;strokeWidth=6;dashPattern=1 4;fillColor=#dae8fc;strokeColor=#6c8ebf;sketch=1;" parent="1" edge="1">
          <mxGeometry width="50" height="50" relative="1" as="geometry">
            <mxPoint x="80" y="60" as="sourcePoint"/>
            <mxPoint x="140" y="60" as="targetPoint"/>
          </mxGeometry>
        </mxCell>
        <mxCell id="EPc09F-uwxIYR0prN0li-5" value="" style="endArrow=none;dashed=1;html=1;strokeWidth=6;dashPattern=1 4;fillColor=#dae8fc;strokeColor=#6c8ebf;sketch=1;" parent="1" edge="1">
          <mxGeometry width="50" height="50" relative="1" as="geometry">
            <mxPoint x="80.00000000000011" y="239.99999999999977" as="sourcePoint"/>
            <mxPoint x="140" y="240" as="targetPoint"/>
          </mxGeometry>
        </mxCell>
        <mxCell id="rswDAVN-zbumqpKh8glA-19" value="" style="endArrow=none;dashed=1;html=1;strokeWidth=6;dashPattern=1 4;fillColor=#dae8fc;strokeColor=#6c8ebf;sketch=1;" parent="1" edge="1">
          <mxGeometry width="50" height="50" relative="1" as="geometry">
            <mxPoint x="80" y="280" as="sourcePoint"/>
            <mxPoint x="140" y="280" as="targetPoint"/>
          </mxGeometry>
        </mxCell>
        <mxCell id="H8k91Xr5LqOuxx0Z85sr-45" value="" style="endArrow=none;dashed=1;html=1;strokeWidth=6;dashPattern=1 4;fillColor=#ffe6cc;strokeColor=#d79b00;sketch=1;" parent="1" edge="1">
          <mxGeometry width="50" height="50" relative="1" as="geometry">
            <mxPoint x="80.00000000000011" y="210" as="sourcePoint"/>
            <mxPoint x="500" y="210" as="targetPoint"/>
          </mxGeometry>
        </mxCell>
        <mxCell id="H8k91Xr5LqOuxx0Z85sr-46" value="&lt;b style=&quot;font-size: 12px; background-color: rgb(248, 249, 250);&quot;&gt;Interface&lt;/b&gt;" style="endArrow=none;html=1;rounded=1;sketch=1;strokeWidth=1;fillColor=#f5f5f5;strokeColor=#666666;" parent="1" edge="1">
          <mxGeometry width="50" height="50" relative="1" as="geometry">
            <mxPoint x="20" y="370" as="sourcePoint"/>
            <mxPoint x="80" y="370" as="targetPoint"/>
            <Array as="points">
              <mxPoint x="20" y="380"/>
              <mxPoint x="80" y="380"/>
            </Array>
          </mxGeometry>
        </mxCell>
        <mxCell id="H8k91Xr5LqOuxx0Z85sr-47" value="&lt;b style=&quot;font-size: 12px; background-color: rgb(248, 249, 250);&quot;&gt;Memory&lt;/b&gt;" style="endArrow=none;html=1;rounded=1;sketch=1;strokeWidth=1;fillColor=#f5f5f5;strokeColor=#666666;" parent="1" edge="1">
          <mxGeometry width="50" height="50" relative="1" as="geometry">
            <mxPoint x="200.0000000000001" y="370" as="sourcePoint"/>
            <mxPoint x="260" y="370" as="targetPoint"/>
            <Array as="points">
              <mxPoint x="200" y="380"/>
              <mxPoint x="260" y="380"/>
            </Array>
          </mxGeometry>
        </mxCell>
        <mxCell id="H8k91Xr5LqOuxx0Z85sr-48" value="&lt;b style=&quot;font-size: 12px; background-color: rgb(248, 249, 250);&quot;&gt;Devices&lt;/b&gt;" style="endArrow=none;html=1;rounded=1;sketch=1;strokeWidth=1;fillColor=#f5f5f5;strokeColor=#666666;" parent="1" edge="1">
          <mxGeometry width="50" height="50" relative="1" as="geometry">
            <mxPoint x="260.0000000000001" y="370" as="sourcePoint"/>
            <mxPoint x="500" y="370" as="targetPoint"/>
            <Array as="points">
              <mxPoint x="260" y="380"/>
              <mxPoint x="500" y="380"/>
            </Array>
          </mxGeometry>
        </mxCell>
        <mxCell id="H8k91Xr5LqOuxx0Z85sr-50" value="&lt;span style=&quot;font-size: 12px; text-align: left; background-color: rgb(248, 249, 250);&quot;&gt;User&lt;/span&gt;" style="endArrow=classic;html=1;rounded=1;sketch=1;fillColor=#f5f5f5;strokeColor=#666666;endFill=1;" parent="1" edge="1">
          <mxGeometry width="50" height="50" relative="1" as="geometry">
            <mxPoint x="510" y="269.9999999999999" as="sourcePoint"/>
            <mxPoint x="520" y="240" as="targetPoint"/>
            <Array as="points">
              <mxPoint x="520" y="270"/>
            </Array>
          </mxGeometry>
        </mxCell>
        <mxCell id="H8k91Xr5LqOuxx0Z85sr-51" value="&lt;span style=&quot;font-size: 12px; text-align: left; background-color: rgb(248, 249, 250);&quot;&gt;App&lt;/span&gt;" style="endArrow=classic;html=1;rounded=1;sketch=1;fillColor=#f5f5f5;strokeColor=#666666;endFill=1;" parent="1" edge="1">
          <mxGeometry width="50" height="50" relative="1" as="geometry">
            <mxPoint x="510" y="179.9999999999999" as="sourcePoint"/>
            <mxPoint x="520" y="150" as="targetPoint"/>
            <Array as="points">
              <mxPoint x="520" y="180"/>
            </Array>
          </mxGeometry>
        </mxCell>
        <mxCell id="H8k91Xr5LqOuxx0Z85sr-10" value="" style="endArrow=none;dashed=1;html=1;strokeWidth=6;dashPattern=1 4;fillColor=#b1ddf0;strokeColor=#10739e;sketch=1;" parent="1" edge="1">
          <mxGeometry width="50" height="50" relative="1" as="geometry">
            <mxPoint x="259.9999999999999" y="310" as="sourcePoint"/>
            <mxPoint x="320" y="310" as="targetPoint"/>
          </mxGeometry>
        </mxCell>
        <mxCell id="H8k91Xr5LqOuxx0Z85sr-9" value="" style="endArrow=none;dashed=1;html=1;strokeWidth=6;dashPattern=1 4;fillColor=#b0e3e6;strokeColor=#0e8088;sketch=1;" parent="1" edge="1">
          <mxGeometry width="50" height="50" relative="1" as="geometry">
            <mxPoint x="199.9999999999999" y="310" as="sourcePoint"/>
            <mxPoint x="260" y="310" as="targetPoint"/>
          </mxGeometry>
        </mxCell>
        <mxCell id="rswDAVN-zbumqpKh8glA-8" value="" style="endArrow=none;dashed=1;html=1;strokeWidth=6;dashPattern=1 4;fillColor=#f8cecc;strokeColor=#b85450;sketch=1;" parent="1" edge="1">
          <mxGeometry width="50" height="50" relative="1" as="geometry">
            <mxPoint x="140" y="310" as="sourcePoint"/>
            <mxPoint x="200" y="310" as="targetPoint"/>
          </mxGeometry>
        </mxCell>
        <mxCell id="rswDAVN-zbumqpKh8glA-9" value="" style="endArrow=none;dashed=1;html=1;strokeWidth=6;dashPattern=1 4;fillColor=#dae8fc;strokeColor=#6c8ebf;sketch=1;" parent="1" edge="1">
          <mxGeometry width="50" height="50" relative="1" as="geometry">
            <mxPoint x="80" y="310" as="sourcePoint"/>
            <mxPoint x="140" y="310" as="targetPoint"/>
          </mxGeometry>
        </mxCell>
        <mxCell id="H8k91Xr5LqOuxx0Z85sr-52" value="&lt;b style=&quot;text-align: left;&quot;&gt;&lt;font style=&quot;font-size: 14px;&quot;&gt;Well-defined Simple Machine&lt;/font&gt;&lt;/b&gt;" style="text;html=1;align=center;verticalAlign=middle;resizable=0;points=[];autosize=1;strokeColor=none;fillColor=none;fontColor=#000000;" parent="1" vertex="1">
          <mxGeometry x="80" y="400" width="210" height="20" as="geometry"/>
        </mxCell>
        <mxCell id="H8k91Xr5LqOuxx0Z85sr-54" value="SysLib" style="rounded=0;whiteSpace=wrap;html=1;align=left;gradientDirection=east;strokeColor=none;fillColor=#f8cecc;gradientColor=#ffffff;" parent="1" vertex="1">
          <mxGeometry x="20" y="248" width="40" height="4" as="geometry"/>
        </mxCell>
        <mxCell id="H8k91Xr5LqOuxx0Z85sr-55" value="Lib" style="rounded=0;whiteSpace=wrap;html=1;align=left;gradientDirection=east;strokeColor=none;fillColor=#ffe6cc;gradientColor=#ffffff;" parent="1" vertex="1">
          <mxGeometry x="20" y="208" width="40" height="4" as="geometry"/>
        </mxCell>
        <mxCell id="9zTj12j0PewhHj_rZl4x-2" value="&lt;font style=&quot;font-size: 12px;&quot;&gt;1&lt;/font&gt;" style="text;html=1;align=center;verticalAlign=middle;resizable=0;points=[];autosize=1;strokeColor=none;fillColor=none;fontSize=8;fontColor=#999999;" parent="1" vertex="1">
          <mxGeometry x="60" y="270" width="20" height="20" as="geometry"/>
        </mxCell>
        <mxCell id="9zTj12j0PewhHj_rZl4x-3" value="&lt;font style=&quot;font-size: 12px;&quot;&gt;1&lt;/font&gt;" style="text;html=1;align=center;verticalAlign=middle;resizable=0;points=[];autosize=1;strokeColor=none;fillColor=none;fontSize=8;fontColor=#999999;" parent="1" vertex="1">
          <mxGeometry x="60" y="230" width="20" height="20" as="geometry"/>
        </mxCell>
        <mxCell id="9zTj12j0PewhHj_rZl4x-4" value="&lt;font style=&quot;font-size: 12px;&quot;&gt;2&lt;/font&gt;" style="text;html=1;align=center;verticalAlign=middle;resizable=0;points=[];autosize=1;strokeColor=none;fillColor=none;fontSize=8;fontColor=#999999;" parent="1" vertex="1">
          <mxGeometry x="60" y="240" width="20" height="20" as="geometry"/>
        </mxCell>
        <mxCell id="9zTj12j0PewhHj_rZl4x-5" value="&lt;font style=&quot;font-size: 12px;&quot;&gt;1&lt;/font&gt;" style="text;html=1;align=center;verticalAlign=middle;resizable=0;points=[];autosize=1;strokeColor=none;fillColor=none;fontSize=8;fontColor=#999999;" parent="1" vertex="1">
          <mxGeometry x="60" y="180" width="20" height="20" as="geometry"/>
        </mxCell>
        <mxCell id="9zTj12j0PewhHj_rZl4x-6" value="&lt;font style=&quot;font-size: 12px;&quot;&gt;2&lt;/font&gt;" style="text;html=1;align=center;verticalAlign=middle;resizable=0;points=[];autosize=1;strokeColor=none;fillColor=none;fontSize=8;fontColor=#999999;" parent="1" vertex="1">
          <mxGeometry x="60" y="190" width="20" height="20" as="geometry"/>
        </mxCell>
        <mxCell id="9zTj12j0PewhHj_rZl4x-7" value="&lt;font style=&quot;font-size: 12px;&quot;&gt;3&lt;/font&gt;" style="text;html=1;align=center;verticalAlign=middle;resizable=0;points=[];autosize=1;strokeColor=none;fillColor=none;fontSize=8;fontColor=#999999;" parent="1" vertex="1">
          <mxGeometry x="60" y="200" width="20" height="20" as="geometry"/>
        </mxCell>
        <mxCell id="9zTj12j0PewhHj_rZl4x-8" value="&lt;font style=&quot;font-size: 12px;&quot;&gt;1&lt;/font&gt;" style="text;html=1;align=center;verticalAlign=middle;resizable=0;points=[];autosize=1;strokeColor=none;fillColor=none;fontSize=8;fontColor=#999999;" parent="1" vertex="1">
          <mxGeometry x="60" y="120" width="20" height="20" as="geometry"/>
        </mxCell>
        <mxCell id="9zTj12j0PewhHj_rZl4x-9" value="&lt;font style=&quot;font-size: 12px;&quot;&gt;2&lt;/font&gt;" style="text;html=1;align=center;verticalAlign=middle;resizable=0;points=[];autosize=1;strokeColor=none;fillColor=none;fontSize=8;fontColor=#999999;" parent="1" vertex="1">
          <mxGeometry x="60" y="130" width="20" height="20" as="geometry"/>
        </mxCell>
        <mxCell id="9zTj12j0PewhHj_rZl4x-10" value="&lt;font style=&quot;font-size: 12px;&quot;&gt;3&lt;/font&gt;" style="text;html=1;align=center;verticalAlign=middle;resizable=0;points=[];autosize=1;strokeColor=none;fillColor=none;fontSize=8;fontColor=#999999;" parent="1" vertex="1">
          <mxGeometry x="60" y="140" width="20" height="20" as="geometry"/>
        </mxCell>
        <mxCell id="9zTj12j0PewhHj_rZl4x-11" value="&lt;font style=&quot;font-size: 12px;&quot;&gt;4&lt;/font&gt;" style="text;html=1;align=center;verticalAlign=middle;resizable=0;points=[];autosize=1;strokeColor=none;fillColor=none;fontSize=8;fontColor=#999999;" parent="1" vertex="1">
          <mxGeometry x="60" y="150" width="20" height="20" as="geometry"/>
        </mxCell>
        <mxCell id="9zTj12j0PewhHj_rZl4x-12" value="&lt;font style=&quot;font-size: 12px;&quot;&gt;1&lt;/font&gt;" style="text;html=1;align=center;verticalAlign=middle;resizable=0;points=[];autosize=1;strokeColor=none;fillColor=none;fontSize=8;fontColor=#999999;" parent="1" vertex="1">
          <mxGeometry x="60" y="50" width="20" height="20" as="geometry"/>
        </mxCell>
        <mxCell id="9zTj12j0PewhHj_rZl4x-13" value="&lt;font style=&quot;font-size: 12px;&quot;&gt;2&lt;/font&gt;" style="text;html=1;align=center;verticalAlign=middle;resizable=0;points=[];autosize=1;strokeColor=none;fillColor=none;fontSize=8;fontColor=#999999;" parent="1" vertex="1">
          <mxGeometry x="60" y="60" width="20" height="20" as="geometry"/>
        </mxCell>
        <mxCell id="9zTj12j0PewhHj_rZl4x-14" value="&lt;font style=&quot;font-size: 12px;&quot;&gt;3&lt;/font&gt;" style="text;html=1;align=center;verticalAlign=middle;resizable=0;points=[];autosize=1;strokeColor=none;fillColor=none;fontSize=8;fontColor=#999999;" parent="1" vertex="1">
          <mxGeometry x="60" y="70" width="20" height="20" as="geometry"/>
        </mxCell>
        <mxCell id="9zTj12j0PewhHj_rZl4x-15" value="&lt;font style=&quot;font-size: 12px;&quot;&gt;4&lt;/font&gt;" style="text;html=1;align=center;verticalAlign=middle;resizable=0;points=[];autosize=1;strokeColor=none;fillColor=none;fontSize=8;fontColor=#999999;" parent="1" vertex="1">
          <mxGeometry x="60" y="80" width="20" height="20" as="geometry"/>
        </mxCell>
        <mxCell id="9zTj12j0PewhHj_rZl4x-16" value="&lt;font style=&quot;font-size: 12px;&quot;&gt;5&lt;/font&gt;" style="text;html=1;align=center;verticalAlign=middle;resizable=0;points=[];autosize=1;strokeColor=none;fillColor=none;fontSize=8;fontColor=#999999;" parent="1" vertex="1">
          <mxGeometry x="60" y="90" width="20" height="20" as="geometry"/>
        </mxCell>
        <mxCell id="PAhmVjMoxAMaqZg4B_g7-5" value="&lt;span style=&quot;color: rgb(0, 0, 0);&quot;&gt;UserEnv&lt;/span&gt;" style="rounded=0;whiteSpace=wrap;html=1;align=left;fontColor=#333333;gradientColor=#ffffff;gradientDirection=east;strokeColor=none;fillColor=#CCCCCC;" parent="1" vertex="1">
          <mxGeometry x="20" y="60" width="40" height="40" as="geometry"/>
        </mxCell>
      </root>
    </mxGraphModel>
  </diagram>
</mxfile>
